grf.mot																		
version=1																		
nRows=7
nColumns=31
inDegrees=yes																		
endheader																		
time	ground_force_vx	ground_force_vy	ground_force_vz	ground_force_px	ground_force_py	ground_force_pz	1_ground_force_vx	1_ground_force_vy	1_ground_force_vz	1_ground_force_px	1_ground_force_py	1_ground_force_pz	ground_torque_x	ground_torque_y	ground_torque_z	1_ground_torque_x	1_ground_torque_y	1_ground_torque_z	apo_force_vx	apo_force_vy	apo_force_vz	apo_force_px	apo_force_py	apo_force_pz	1_apo_force_vx	1_apo_force_vy	1_apo_force_vz	1_apo_force_px	1_apo_force_py	1_apo_force_pz	
0.01500000000000	71.65649999999999	912.76099999999997	-40.01090000000000	-0.31666800000000	0.00000000000000	0.06442220000000	0.00000000000000	0.00000000000000	0.00000000000000	0.00000000000000	0.00000000000000	0.00000000000000	0.00000000000000	2.07518000000000	0.00000000000000	0.00000000000000	0.00000000000000	0.00000000000000	0.35855000000000	-0.04700700000000	0.00000000000000	0.00000000000000	-0.35000000000000	0.00000000000000	-0.58179000000000	-0.43671000000000	0.00000000000000	0.00000000000000	-0.35000000000000	0.00000000000000	
0.02000000000000	79.51530000000000	939.49900000000002	-41.10920000000000	-0.32112700000000	0.00000000000000	0.06413770000000	0.00000000000000	0.00000000000000	0.00000000000000	0.00000000000000	0.00000000000000	0.00000000000000	0.00000000000000	1.83334000000000	0.00000000000000	0.00000000000000	0.00000000000000	0.00000000000000	0.05254700000000	-0.00739450000000	0.00000000000000	0.00000000000000	-0.35000000000000	0.00000000000000	-0.25492000000000	-0.19153000000000	0.00000000000000	0.00000000000000	-0.35000000000000	0.00000000000000	
0.02500000000000	88.11300000000000	965.29800000000000	-41.99850000000000	-0.32661300000000	0.00000000000000	0.06392700000000	0.00000000000000	0.00000000000000	0.00000000000000	0.00000000000000	0.00000000000000	0.00000000000000	0.00000000000000	1.58319000000000	0.00000000000000	0.00000000000000	0.00000000000000	0.00000000000000	-0.25437000000000	0.03823700000000	0.00000000000000	0.00000000000000	-0.35000000000000	0.00000000000000	0.06566300000000	0.04938400000000	0.00000000000000	0.00000000000000	-0.35000000000000	0.00000000000000	
0.03000000000000	97.40250000000000	989.80100000000004	-42.65860000000000	-0.33322400000000	0.00000000000000	0.06379400000000	0.00000000000000	0.00000000000000	0.00000000000000	0.00000000000000	0.00000000000000	0.00000000000000	0.00000000000000	1.32442000000000	0.00000000000000	0.00000000000000	0.00000000000000	0.00000000000000	-0.56813000000000	0.09082200000000	0.00000000000000	0.00000000000000	-0.35000000000000	0.00000000000000	0.38114000000000	0.28698000000000	0.00000000000000	0.00000000000000	-0.35000000000000	0.00000000000000	
0.03500000000000	107.31500000000000	1012.64000000000000	-43.07290000000000	-0.34103000000000	0.00000000000000	0.06374010000000	0.00000000000000	0.00000000000000	0.00000000000000	0.00000000000000	0.00000000000000	0.00000000000000	0.00000000000000	1.05688000000000	0.00000000000000	0.00000000000000	0.00000000000000	0.00000000000000	-0.89408000000000	0.15139000000000	0.00000000000000	0.00000000000000	-0.35000000000000	0.00000000000000	0.69248000000000	0.52216000000000	0.00000000000000	0.00000000000000	-0.35000000000000	0.00000000000000	
0.04000000000000	117.76200000000000	1033.44000000000010	-43.22840000000000	-0.35007100000000	0.00000000000000	0.06376450000000	0.00000000000000	0.00000000000000	0.00000000000000	0.00000000000000	0.00000000000000	0.00000000000000	0.00000000000000	0.78061500000000	0.00000000000000	0.00000000000000	0.00000000000000	0.00000000000000	-1.23650000000000	0.22093000000000	0.00000000000000	0.00000000000000	-0.35000000000000	0.00000000000000	1.00020000000000	0.75547000000000	0.00000000000000	0.00000000000000	-0.35000000000000	0.00000000000000	
0.04500000000000	128.63100000000000	1051.80999999999990	-43.11640000000000	-0.36035400000000	0.00000000000000	0.06386360000000	0.00000000000000	0.00000000000000	0.00000000000000	0.00000000000000	0.00000000000000	0.00000000000000	0.00000000000000	0.49592800000000	0.00000000000000	0.00000000000000	0.00000000000000	0.00000000000000	-1.59800000000000	0.30021000000000	0.00000000000000	0.00000000000000	-0.35000000000000	0.00000000000000	1.30400000000000	0.98695000000000	0.00000000000000	0.00000000000000	-0.35000000000000	0.00000000000000	
